<?xml version="1.0" encoding="iso-8859-1"?>
<!-- Generator: Adobe Illustrator 17.1.0, SVG Export Plug-In . SVG Version: 6.00 Build 0)  -->
<!DOCTYPE svg PUBLIC "-//W3C//DTD SVG 1.1//EN" "http://www.w3.org/Graphics/SVG/1.1/DTD/svg11.dtd">
<svg xmlns="http://www.w3.org/2000/svg" xmlns:xlink="http://www.w3.org/1999/xlink" version="1.1" id="Capa_1" x="0px" y="0px" viewBox="0 0 512 512" style="enable-background:new 0 0 512 512;" xml:space="preserve" width="512px" height="512px">
<path d="M344,448h-8v-49.376c9.311-3.302,16-12.195,16-22.624c0-13.234-10.767-24-24-24h-16.163l-15.411-192.638  c-0.024-0.298-0.064-0.595-0.122-0.889c-0.136-0.699-3.107-16.908,10.322-22.708C314.201,134.506,320,127.926,320,120v-16  c0-8.823-7.178-16-16-16h-8V72c0-8.823-7.178-16-16-16h-16v-9.376c9.311-3.302,16-12.195,16-22.624c0-13.234-10.766-24-24-24  s-24,10.766-24,24c0,10.429,6.689,19.322,16,22.624V56h-16c-8.822,0-16,7.177-16,16v16h-8c-8.822,0-16,7.177-16,16v16  c0,8.172,6.162,14.922,14.082,15.874c12.726,5.707,10.375,20.891,10.065,22.599c-0.057,0.294-0.098,0.591-0.122,0.889L200.614,352  H184c-13.233,0-24,10.766-24,24c0,10.429,6.689,19.321,16,22.624V448h-8c-13.233,0-24,10.767-24,24v32c0,4.418,3.582,8,8,8h208  c4.418,0,8-3.582,8-8v-32C368,458.767,357.233,448,344,448z M256,16c4.411,0,8,3.589,8,8s-3.589,8-8,8s-8-3.589-8-8  S251.589,16,256,16z M208,104h40c4.418,0,8-3.582,8-8s-3.582-8-8-8h-16V72h48v16h0c-4.418,0-8,3.582-8,8s3.582,8,8,8h24v16h-96V104z   M228.316,136h55.819c-4.518,8.829-4.739,18.788-3.625,25.051L295.786,352h-79.12l15.276-190.949  C233.055,154.788,232.835,144.83,228.316,136z M192,400h88c4.418,0,8-3.582,8-8s-3.582-8-8-8h-96c-4.411,0-8-3.589-8-8s3.589-8,8-8  h23.997c0.004,0,0.008,0,0.012,0c0.003,0,0.007,0,0.01,0h96.414c0.003,0,0.007,0,0.01,0c0.004,0,0.008,0,0.012,0H328  c4.411,0,8,3.589,8,8s-3.589,8-8,8h-16c-4.418,0-8,3.582-8,8s3.582,8,8,8h8v48H192V400z M352,496H160v-24c0-4.411,3.589-8,8-8h16  h144h16c4.411,0,8,3.589,8,8V496z" fill="#FFFFFF"/>
<g>
</g>
<g>
</g>
<g>
</g>
<g>
</g>
<g>
</g>
<g>
</g>
<g>
</g>
<g>
</g>
<g>
</g>
<g>
</g>
<g>
</g>
<g>
</g>
<g>
</g>
<g>
</g>
<g>
</g>
</svg>
