<?xml version="1.0" encoding="iso-8859-1"?>
<!-- Generator: Adobe Illustrator 19.0.0, SVG Export Plug-In . SVG Version: 6.00 Build 0)  -->
<svg version="1.1" id="Layer_1" xmlns="http://www.w3.org/2000/svg" xmlns:xlink="http://www.w3.org/1999/xlink" x="0px" y="0px"
	 viewBox="0 0 512.001 512.001" style="enable-background:new 0 0 512.001 512.001;" xml:space="preserve">
<g>
	<g>
		<g>
			<path d="M210.997,60.633c-3.128-5.104-8.569-8.15-14.554-8.15c-5.985,0-11.426,3.046-14.554,8.15l-8.951,14.602
				c-2.842,4.635-4.345,9.961-4.345,15.399v5.627c0,6.496,3.012,12.415,8.265,16.238c3.505,2.551,7.591,3.867,11.759,3.867
				c2.078,0,4.177-0.328,6.235-0.992l14.943-4.824c8.671-2.799,14.498-10.803,14.498-19.915c0-5.438-1.502-10.763-4.345-15.399
				L210.997,60.633z M204.903,95.397l-14.944,4.825c-1.756,0.564-3.091-0.131-3.73-0.597c-0.64-0.466-1.713-1.523-1.713-3.366
				v-5.627c0-2.499,0.69-4.946,1.997-7.077l8.951-14.602c0.084-0.136,0.336-0.55,0.98-0.55c0.643,0,0.897,0.414,0.98,0.55
				l8.951,14.602c1.306,2.13,1.997,4.578,1.997,7.077C208.37,92.813,206.977,94.728,204.903,95.397z"/>
			<path d="M294.911,168.075c-4.397,0-7.961,3.563-7.961,7.961v11.856c0,4.398,3.564,7.961,7.961,7.961s7.961-3.563,7.961-7.961
				v-11.856C302.872,171.638,299.307,168.075,294.911,168.075z"/>
			<path d="M468.787,192.866h-60.022v-28.94c0-8.765-1.273-17.468-3.782-25.867c-0.015-0.049-0.04-0.092-0.056-0.141
				c-3.211-10.68-8.475-20.717-15.347-29.521v-9.561c0-16.225-4.854-31.871-14.038-45.247L357.74,27.66
				c-5.402-7.869-14.326-12.566-23.87-12.566S315.401,19.791,310,27.66l-22.578,32.885c-2.802,4.081-4.976,8.484-6.525,13.136
				h-31.465c-1.55-4.653-3.74-9.052-6.543-13.136L220.312,27.66c-5.402-7.868-14.326-12.566-23.87-12.566
				c-9.545,0-18.469,4.698-23.871,12.566l-17.801,25.93c-9.183,13.377-14.038,29.023-14.038,45.247v162.15
				c0,15.106-4.354,29.781-12.59,42.441l-18.561,28.531c-1.637,2.516-3.19,5.083-4.702,7.678
				c-26.785-31.11-41.699-70.332-42.203-111.608c-0.137-11.188-7.57-20.285-18.499-22.635c-10.959-2.361-21.505,2.894-26.244,13.066
				c-2.482,5.329-4.75,10.854-6.742,16.418c-25.368,70.897-6.764,149.404,47.332,201.356l-2.387,10.966
				c-2.651,12.179,0.314,24.73,8.135,34.435c7.821,9.706,19.455,15.272,31.919,15.272h88.835c8.487,0,15.69-5.588,18.134-13.276
				h7.478c6.065,8.056,15.706,13.276,26.543,13.276h70.361c0.867,0,1.714-0.079,2.551-0.191c1.121,0.114,2.24,0.191,3.339,0.191
				h70.361c10.492,0,19.028-8.536,19.028-19.029c0-24.258-19.641-44.014-43.855-44.205v-59.121c0-13.938-7.326-26.645-19.036-33.704
				v-14.505h91.096c44.653,0,80.98-36.328,80.98-80.98v-9.284C512,212.251,492.614,192.866,468.787,192.866z M463.614,208.788
				l-5.068,6.036c-4.202,5.006-10.362,7.876-16.898,7.876c-6.536,0-12.695-2.87-16.898-7.876l-5.069-6.036H463.614z M300.549,69.559
				l22.578-32.887c2.468-3.595,6.384-5.656,10.744-5.656c4.36,0,8.276,2.06,10.744,5.656l17.802,25.93
				c6.1,8.886,9.807,19.024,10.896,29.638c-0.141-0.108-0.276-0.223-0.417-0.33c-3.995-3.023-8.188-5.682-12.541-7.972
				c-1.084-4.282-2.794-8.308-5.11-12.008L344.596,54.91c-2.327-3.72-6.337-5.942-10.725-5.942c-4.388,0-8.397,2.222-10.725,5.942
				l-11.744,18.773h-13.294C298.831,72.264,299.639,70.885,300.549,69.559z M339.023,76.024c-3.05-0.706-6.141-1.266-9.272-1.652
				l4.12-6.584L339.023,76.024z M63.763,412.153l-1.197,5.498C19.784,371.642,4.979,306.234,24.243,245.975
				c-9.257,55.036,6.104,111.848,43.041,155.084C65.792,404.599,64.601,408.304,63.763,412.153z M45.795,224.431
				c0.558,0.979,0.939,2.213,0.958,3.793c0.576,47.15,18.375,91.844,50.23,126.492c-2.853,6.12-5.373,12.406-7.558,18.827
				c-5.104,3.625-9.674,7.977-13.549,12.923C39.354,340.896,27.987,280.193,45.795,224.431z M185.022,480.985H96.187
				c-7.622,0-14.737-3.404-19.521-9.34c-4.783-5.936-6.596-13.611-4.975-21.061l7.629-35.048
				c4.789-22.005,24.612-37.977,47.135-37.977c7.782,0,15.045,3.475,19.928,9.534c4.883,6.06,6.733,13.896,5.078,21.5l-6.823,31.346
				c-0.512,2.353,0.069,4.812,1.579,6.688c1.512,1.876,3.791,2.966,6.199,2.966h7.426c15.596,0,28.284,12.688,28.284,28.284
				C188.128,479.592,186.735,480.985,185.022,480.985z M203.967,374.552v89.146c0,1.359,0.091,2.696,0.25,4.012h-1.359
				c-4.426-18.724-20.785-32.889-40.577-33.97l4.736-21.759c2.684-12.333-0.317-25.045-8.238-34.875
				c-7.92-9.829-19.702-15.467-32.326-15.467c-5.518,0-10.912,0.726-16.084,2.085c3.594-8.015,7.781-15.741,12.556-23.081
				l18.561-28.531c9.922-15.25,15.166-32.929,15.166-51.124V98.838c0-12.992,3.887-25.523,11.242-36.235l17.801-25.93
				c2.469-3.595,6.385-5.656,10.745-5.656c4.359,0,8.276,2.061,10.744,5.656l22.579,32.887c2.832,4.126,4.767,8.715,5.749,13.641
				c0.742,3.724,4.01,6.404,7.807,6.404h75.2c16.315,0,31.795,5.188,44.765,15.004c7.54,5.705,13.923,12.858,18.802,20.905
				c-4.022-0.85-8.165-1.289-12.376-1.289c-15.517,0-30.262,6.131-40.564,16.472c-10.304-10.34-25.05-16.472-40.565-16.472
				c-30.28,0-54.914,22.639-54.914,50.467c0,23.853,18.459,44.318,43.207,49.296v44.726c0,28.188,20.349,51.699,47.125,56.653
				v21.031c-1.438-0.149-2.89-0.202-4.348-0.15c-16.62,0.591-30.142,14.862-30.142,31.812v28.852c0,8.078-2.381,15.733-6.803,22.239
				v-54.598c0-21.709-17.662-39.372-39.372-39.372C221.629,335.18,203.967,352.843,203.967,374.552z M307.538,480.985h-70.361
				c-9.532,0-17.288-7.756-17.288-17.288v-89.145c0-12.931,10.519-23.45,23.449-23.45c12.931,0,23.45,10.519,23.45,23.45v67.082
				c0,4.398,3.564,7.961,7.961,7.961h7.61c15.596,0,28.284,12.688,28.284,28.284C310.643,479.592,309.25,480.985,307.538,480.985z
				 M309.975,443.399c-3.833-3.076-8.184-5.525-12.904-7.197c5.401-8.739,8.365-18.9,8.365-29.292v-28.852
				c0-8.477,6.632-15.61,14.784-15.9c1.277-0.046,2.546,0.074,3.782,0.34v40.806C324.003,418.068,319.058,432.039,309.975,443.399z
				 M343.038,374.552v67.082c0,4.398,3.564,7.961,7.961,7.961h7.61c15.596,0,28.284,12.688,28.284,28.284
				c0,1.713-1.394,3.107-3.106,3.107h-57.499c0.168-1.014,0.277-2.047,0.277-3.107c0-8.116-2.208-15.723-6.041-22.268
				c12.544-14.556,19.399-32.881,19.399-52.307V362.88C341.921,366.36,343.038,370.361,343.038,374.552z M496.079,245.362h-0.001
				c0,35.874-29.185,65.058-65.058,65.058h-96.513c-22.997,0-41.707-18.71-41.707-41.707v-51.664c0-4.177-3.228-7.643-7.393-7.94
				c-20.082-1.437-35.814-16.556-35.814-34.418c0-19.047,17.492-34.545,38.992-34.545c13.947,0,26.926,6.692,33.876,17.463
				c1.466,2.274,3.985,3.646,6.689,3.646s5.224-1.374,6.69-3.646c6.948-10.772,19.928-17.463,33.875-17.463
				c7.449,0,14.585,1.838,20.809,5.342c1.541,6.024,2.32,12.212,2.32,18.438v36.901c0,4.398,3.564,7.961,7.961,7.961h1.42
				c0.271,2.865,1.399,5.637,3.355,7.968l6.976,8.307c5.496,6.546,12.938,10.964,21.13,12.713v13.206
				c0,2.937-2.389,5.325-5.325,5.325s-5.325-2.388-5.325-5.325c0-4.398-3.564-7.961-7.961-7.961c-4.397,0-7.961,3.563-7.961,7.961
				c0,11.715,9.531,21.247,21.247,21.247c5.023,0,9.646-1.751,13.286-4.678c3.641,2.927,8.264,4.678,13.286,4.678
				c11.716,0,21.247-9.531,21.247-21.247c0-4.398-3.564-7.961-7.961-7.961s-7.961,3.563-7.961,7.961
				c0,2.937-2.388,5.325-5.325,5.325s-5.325-2.388-5.325-5.325v-13.206c8.191-1.749,15.633-6.167,21.131-12.713l6.976-8.307v-0.001
				c1.339-1.594,2.289-3.398,2.845-5.295c9.171,4.403,15.519,13.782,15.519,24.618V245.362z"/>
			<path d="M364.8,168.075c-4.397,0-7.961,3.563-7.961,7.961v11.856c0,4.398,3.564,7.961,7.961,7.961s7.961-3.563,7.961-7.961
				v-11.856C372.761,171.638,369.197,168.075,364.8,168.075z"/>
		</g>
	</g>
</g>
<g>
</g>
<g>
</g>
<g>
</g>
<g>
</g>
<g>
</g>
<g>
</g>
<g>
</g>
<g>
</g>
<g>
</g>
<g>
</g>
<g>
</g>
<g>
</g>
<g>
</g>
<g>
</g>
<g>
</g>
</svg>
